<?xml version="1.0" standalone="no"?><!DOCTYPE svg PUBLIC "-//W3C//DTD SVG 1.1//EN" "http://www.w3.org/Graphics/SVG/1.1/DTD/svg11.dtd"><svg t="1694574834947" class="icon" viewBox="0 0 1024 1024" version="1.1" xmlns="http://www.w3.org/2000/svg" p-id="32702" xmlns:xlink="http://www.w3.org/1999/xlink" width="200" height="200"><path d="M789.333333 85.333333a149.333333 149.333333 0 1 1-106.666666 253.653334l-184.533334 96.64a213.333333 213.333333 0 0 1 0 152.746666L682.666667 685.013333A149.333333 149.333333 0 1 1 640 789.333333a139.733333 139.733333 0 0 1 2.773333-28.586666L451.84 661.333333a213.333333 213.333333 0 1 1 0-296.96l192-100.266666A139.733333 139.733333 0 0 1 640 234.666667a149.333333 149.333333 0 0 1 149.333333-149.333334z m0 640a64 64 0 1 0 64 64 64 64 0 0 0-64-64zM298.666667 384a128 128 0 1 0 128 128 128 128 0 0 0-128-128zM789.333333 170.666667a64 64 0 1 0 64 64 64 64 0 0 0-64-64z" p-id="32703" fill="#35C6BF"></path></svg>