<?xml version="1.0" standalone="no"?><!DOCTYPE svg PUBLIC "-//W3C//DTD SVG 1.1//EN" "http://www.w3.org/Graphics/SVG/1.1/DTD/svg11.dtd"><svg t="1698028292090" class="icon" viewBox="0 0 1102 1024" version="1.1" xmlns="http://www.w3.org/2000/svg" p-id="25466" xmlns:xlink="http://www.w3.org/1999/xlink" width="215.234375" height="200"><path d="M481.03817 809.785534l-85.226965 49.090456-351.188222-202.597312V250.678705l351.188222-202.588687 351.188222 202.588687v91.902301a22.311491 22.311491 0 1 0 44.622983 0V237.742007a22.311491 22.311491 0 0 0-11.160058-19.189435L406.962639 2.992689a22.311491 22.311491 0 0 0-22.311492 0L11.160058 218.526699A22.311491 22.311491 0 0 0 0 237.742007v431.481993a22.311491 22.311491 0 0 0 11.160058 19.189435l373.491089 215.525385a21.423172 21.423172 0 0 0 22.311492 0l96.387022-56.222888a22.759964 22.759964 0 0 0 8.029378-30.789341 22.311491 22.311491 0 0 0-30.340869-7.141057z" fill="#2c2c2c" p-id="25467"></path><path d="M395.811205 800.41074a22.311491 22.311491 0 0 0 22.311491-22.311491V465.729744l269.945761-153.51548a21.863019 21.863019 0 0 0 8.029377-30.340868 22.311491 22.311491 0 0 0-30.340869-8.47785l-269.94576 154.377927L128.073308 271.610282a22.311491 22.311491 0 0 0-30.340869 8.477849 21.863019 21.863019 0 0 0 5.804266 32.126133l267.737897 155.731968v312.36088a22.311491 22.311491 0 0 0 24.545228 20.077755z m695.675235-255.284169L840.247145 401.477479a22.311491 22.311491 0 0 0-22.311492 0L566.25651 546.946333a21.863019 21.863019 0 0 0-11.160057 19.189435v290.049388a23.208436 23.208436 0 0 0 11.160057 19.637908l251.679143 145.029006a24.545228 24.545228 0 0 0 11.160058 3.122057 26.321868 26.321868 0 0 0 11.160058-3.122057l251.230671-145.029006a22.311491 22.311491 0 0 0 11.160058-19.637908V566.135768a20.974699 20.974699 0 0 0-11.160058-20.974699z m-33.471549 296.302126l-228.910555 133.937944-229.367652-133.868949v-264.167368l229.367652-133.868949 228.919179 133.868949z" fill="#2c2c2c" p-id="25468"></path><path d="M696.572179 620.133544a23.208436 23.208436 0 0 0-30.78934 8.47785 22.759964 22.759964 0 0 0 8.477849 30.340868l133.868948 76.309268v153.51548a22.311491 22.311491 0 0 0 22.311492 22.311492 22.759964 22.759964 0 0 0 22.311491-22.320116v-153.51548l133.868949-76.309268a22.423609 22.423609 0 0 0-22.311492-38.810094l-133.868948 76.757741z" fill="#2c2c2c" p-id="25469"></path></svg>