<svg t="1695650312865" class="icon" viewBox="0 0 1024 1024" version="1.1" xmlns="http://www.w3.org/2000/svg" p-id="1670" width="200" height="200"><path d="M698.689956 431.510917l17.886463-33.537118c15.650655-26.829694 6.707424-60.366812-20.122271-73.781659l-15.650655-8.943232c6.707424-17.886463 11.179039-35.772926 13.414848-53.659388l22.358078 67.074235 11.17904-122.969432 91.668122 71.545852-64.838428-118.497817 154.270742-96.139738-174.393013 67.074236L783.650655 0 696.454148 118.497817l-46.951965-64.838428L674.09607 131.912664h-109.554585l89.432314 31.30131-33.537118 96.139738 49.187773-53.659389c2.235808 20.122271 2.235808 55.895197-8.943231 96.139738l-6.707424-4.471616c-26.829694-15.650655-60.366812-6.707424-73.781659 20.122271l-17.886463 31.30131c-149.799127-44.716157-313.0131 17.886463-395.737991 158.742358-96.139738 165.449782-38.008734 375.615721 125.20524 469.519651s375.615721 38.008734 469.51965-125.20524c76.017467-140.855895 49.187773-313.0131-62.60262-420.331878zM613.729258 849.606987c-17.886463-8.943231-17.886463-40.244541-2.235808-67.074236 15.650655-26.829694 42.480349-40.244541 60.366812-31.30131s17.886463 40.244541 2.235808 67.074236c-17.886463 29.065502-44.716157 42.480349-60.366812 31.30131z" fill="#d81e06" p-id="1671"></path></svg>