<?xml version="1.0" standalone="no"?><!DOCTYPE svg PUBLIC "-//W3C//DTD SVG 1.1//EN" "http://www.w3.org/Graphics/SVG/1.1/DTD/svg11.dtd"><svg t="1698041750010" class="icon" viewBox="0 0 1024 1024" version="1.1" xmlns="http://www.w3.org/2000/svg" p-id="94386" xmlns:xlink="http://www.w3.org/1999/xlink" width="200" height="200"><path d="M847.5 158h-671c-41 0-74.5 33.5-74.5 74.5v37.3c0 41 33.5 74.5 74.5 74.5h670.9c41 0 74.5-33.5 74.5-74.5v-37.3c0.1-41-33.4-74.5-74.4-74.5zM512 278.3H176.5v-54.9H512v54.9z m335.5 140.6h-671c-41 0-74.5 33.5-74.5 74.5v37.3c0 41 33.5 74.5 74.5 74.5h670.9c41 0 74.5-33.5 74.5-74.5v-37.3c0.1-40.9-33.4-74.5-74.4-74.5zM512 539.2H176.5v-54.9H512v54.9z m335.5 140.6h-671c-41 0-74.5 33.5-74.5 74.5v37.3c0 41 33.5 74.5 74.5 74.5h670.9c41 0 74.5-33.5 74.5-74.5v-37.3c0.1-40.9-33.4-74.5-74.4-74.5zM512 800.1H176.5v-54.9H512v54.9z" p-id="94387" fill="#2c2c2c"></path></svg>